{
    "accessors" : [
        {
            "bufferView" : 0, 
            "componentType" : 5121, 
            "count" : 6, 
            "max" : [
                3
            ], 
            "min" : [
                0
            ], 
            "type" : "SCALAR"
        }, 
        {
            "bufferView" : 1, 
            "componentType" : 5126, 
            "count" : 4, 
            "max" : [
                4.971643447875977, 
                -1.0631275177001953, 
                10.171646118164062
            ], 
            "min" : [
                -10.171646118164062, 
                -1.0631275177001953, 
                -4.971643447875977
            ], 
            "type" : "VEC3"
        }, 
        {
            "bufferView" : 2, 
            "componentType" : 5126, 
            "count" : 4, 
            "max" : [
                0.0, 
                1.0, 
                -0.0
            ], 
            "min" : [
                0.0, 
                1.0, 
                -0.0
            ], 
            "type" : "VEC3"
        }, 
        {
            "bufferView" : 3, 
            "componentType" : 5123, 
            "count" : 468, 
            "max" : [
                311
            ], 
            "min" : [
                0
            ], 
            "type" : "SCALAR"
        }, 
        {
            "bufferView" : 4, 
            "componentType" : 5126, 
            "count" : 312, 
            "max" : [
                3.600001096725464, 
                1.0, 
                8.800004959106445
            ], 
            "min" : [
                -8.800004005432129, 
                -1.000001311302185, 
                -3.600001811981201
            ], 
            "type" : "VEC3"
        }, 
        {
            "bufferView" : 5, 
            "componentType" : 5126, 
            "count" : 312, 
            "max" : [
                1.0, 
                1.0, 
                1.0
            ], 
            "min" : [
                -1.0, 
                -1.0, 
                -1.0
            ], 
            "type" : "VEC3"
        }, 
        {
            "bufferView" : 6, 
            "componentType" : 5126, 
            "count" : 3, 
            "max" : [
                2.0833333333333335
            ], 
            "min" : [
                1.4166666666666665
            ], 
            "type" : "SCALAR"
        }, 
        {
            "bufferView" : 7, 
            "componentType" : 5126, 
            "count" : 9, 
            "max" : [
                4.597158432006836, 
                7.255706787109375, 
                -0.0
            ], 
            "min" : [
                0.0, 
                0.0, 
                -2.600001335144043
            ], 
            "type" : "VEC3"
        }, 
        {
            "bufferView" : 8, 
            "componentType" : 5126, 
            "count" : 17, 
            "max" : [
                2.0833333333333335
            ], 
            "min" : [
                1.4166666666666665
            ], 
            "type" : "SCALAR"
        }, 
        {
            "bufferView" : 9, 
            "componentType" : 5126, 
            "count" : 17, 
            "max" : [
                0.0, 
                0.0, 
                -0.0, 
                1.0
            ], 
            "min" : [
                0.0, 
                0.0, 
                -0.0, 
                1.0
            ], 
            "type" : "VEC4"
        }, 
        {
            "bufferView" : 10, 
            "componentType" : 5126, 
            "count" : 3, 
            "max" : [
                2.0833333333333335
            ], 
            "min" : [
                1.4166666666666665
            ], 
            "type" : "SCALAR"
        }, 
        {
            "bufferView" : 11, 
            "componentType" : 5126, 
            "count" : 9, 
            "max" : [
                1.0, 
                1.0, 
                1.0
            ], 
            "min" : [
                0.0, 
                0.0, 
                0.0
            ], 
            "type" : "VEC3"
        }
    ], 
    "animations" : [
        {
            "channels" : [
                {
                    "sampler" : 0, 
                    "target" : {
                        "node" : 0, 
                        "path" : "translation"
                    }
                }, 
                {
                    "sampler" : 1, 
                    "target" : {
                        "node" : 0, 
                        "path" : "rotation"
                    }
                }, 
                {
                    "sampler" : 2, 
                    "target" : {
                        "node" : 0, 
                        "path" : "scale"
                    }
                }
            ], 
            "samplers" : [
                {
                    "input" : 6, 
                    "interpolation" : "CUBICSPLINE", 
                    "output" : 7
                }, 
                {
                    "input" : 8, 
                    "interpolation" : "LINEAR", 
                    "output" : 9
                }, 
                {
                    "input" : 10, 
                    "interpolation" : "CUBICSPLINE", 
                    "output" : 11
                }
            ]
        }
    ], 
    "asset" : {
        "generator" : "Khronos Blender glTF 2.0 exporter", 
        "version" : "2.0"
    }, 
    "bufferViews" : [
        {
            "buffer" : 0, 
            "byteLength" : 6, 
            "byteOffset" : 0, 
            "target" : 34963
        }, 
        {
            "buffer" : 0, 
            "byteLength" : 48, 
            "byteOffset" : 8, 
            "target" : 34962
        }, 
        {
            "buffer" : 0, 
            "byteLength" : 48, 
            "byteOffset" : 56, 
            "target" : 34962
        }, 
        {
            "buffer" : 0, 
            "byteLength" : 936, 
            "byteOffset" : 104, 
            "target" : 34963
        }, 
        {
            "buffer" : 0, 
            "byteLength" : 3744, 
            "byteOffset" : 1040, 
            "target" : 34962
        }, 
        {
            "buffer" : 0, 
            "byteLength" : 3744, 
            "byteOffset" : 4784, 
            "target" : 34962
        }, 
        {
            "buffer" : 0, 
            "byteLength" : 12, 
            "byteOffset" : 8528
        }, 
        {
            "buffer" : 0, 
            "byteLength" : 108, 
            "byteOffset" : 8540
        }, 
        {
            "buffer" : 0, 
            "byteLength" : 68, 
            "byteOffset" : 8648
        }, 
        {
            "buffer" : 0, 
            "byteLength" : 272, 
            "byteOffset" : 8716
        }, 
        {
            "buffer" : 0, 
            "byteLength" : 12, 
            "byteOffset" : 8988
        }, 
        {
            "buffer" : 0, 
            "byteLength" : 108, 
            "byteOffset" : 9000
        }
    ], 
    "buffers" : [
        {
            "byteLength" : 9108, 
            "uri" : "data:application/octet-stream;base64,"
        }
    ], 
    "materials" : [
        {
            "name" : "Material", 
            "pbrMetallicRoughness" : {
                "baseColorFactor" : [
                    0.13286834955215454, 
                    0.13286834955215454, 
                    0.13286834955215454, 
                    1.0
                ]
            }
        }, 
        {
            "name" : "Material.001", 
            "pbrMetallicRoughness" : {
                "baseColorFactor" : [
                    0.4125426411628723, 
                    0.362973153591156, 
                    0.004735233727842569, 
                    1.0
                ]
            }
        }
    ], 
    "meshes" : [
        {
            "name" : "Cube.014", 
            "primitives" : [
                {
                    "attributes" : {
                        "NORMAL" : 2, 
                        "POSITION" : 1
                    }, 
                    "indices" : 0, 
                    "material" : 1
                }, 
                {
                    "attributes" : {
                        "NORMAL" : 5, 
                        "POSITION" : 4
                    }, 
                    "indices" : 3, 
                    "material" : 0
                }
            ]
        }
    ], 
    "nodes" : [
        {
            "mesh" : 0, 
            "name" : "Cube.014", 
            "translation" : [
                4.597158432006836, 
                1.0871713161468506, 
                -2.600001335144043
            ]
        }
    ], 
    "scene" : 0, 
    "scenes" : [
        {
            "name" : "Scene", 
            "nodes" : [
                0
            ]
        }
    ]
}
